<?xml version="1.0" encoding="UTF-8"?>
<svg id="Layer_1" xmlns="http://www.w3.org/2000/svg" version="1.1" viewBox="0 0 1302.2 535.1">
  <!-- Generator: Adobe Illustrator 30.1.0, SVG Export Plug-In . SVG Version: 2.1.1 Build 136)  -->
  <defs>
    <style>
      .st0 {
        fill: none;
        stroke: #c66;
        stroke-miterlimit: 10;
        stroke-width: 5.7px;
      }
    </style>
  </defs>
  <rect class="st0" x="2.8" y="2.8" width="1296.6" height="344.5"/>
  <line class="st0" x1="2.8" y1="163.2" x2="1299.4" y2="163.2"/>
  <line class="st0" x1="1200" y1="2.8" x2="1200" y2="532.5"/>
  <line class="st0" x1="1099.8" y1="2.6" x2="1099.8" y2="532.2"/>
  <line class="st0" x1="988.2" y1="2.6" x2="988.2" y2="532.2"/>
  <line class="st0" x1="764.1" y1="2.6" x2="764.1" y2="532.2"/>
  <line class="st0" x1="653.4" y1="2.6" x2="653.4" y2="532.2"/>
  <line class="st0" x1="539.3" y1="2.6" x2="539.3" y2="532.2"/>
  <line class="st0" x1="427.5" y1="2.6" x2="427.5" y2="532.2"/>
  <line class="st0" x1="318.5" y1="2.6" x2="318.5" y2="532.2"/>
  <line class="st0" x1="207.5" y1="2.6" x2="207.5" y2="163.2"/>
  <line class="st0" x1="106.7" y1="2.8" x2="106.7" y2="347.3"/>
  <polyline class="st0" points="207.5 347.3 207.5 532.2 1299.4 532.2 1299.4 347.3"/>
  <line class="st0" x1="876.7" y1="2.6" x2="876.7" y2="347.3"/>
</svg>