{
	"asset":{
		"version":"2.0",
		"generator":"Maxon Cinema 4D 2026.1.0 (#200000219)"
	},
	"scenes":[{
		"nodes":[0]
	}],
	"accessors":[{
		"bufferView":0,
		"type":"SCALAR",
		"componentType":5123,
		"count":774,
		"byteOffset":0,
		"min":[0],
		"max":[199]
	},
	{
		"bufferView":1,
		"type":"VEC3",
		"componentType":5126,
		"count":200,
		"byteOffset":0,
		"min":[-5.465753555297852,
		-1.245491265677856e-8,
		-2.2877604961395265],
		"max":[5.465753555297852,
		1.245491265677856e-8,
		2.2877604961395265]
	},
	{
		"bufferView":1,
		"type":"VEC3",
		"componentType":5126,
		"count":200,
		"byteOffset":12,
		"min":[0.0,
		1.0,
		0.0],
		"max":[0.0,
		1.0,
		0.0]
	},
	{
		"bufferView":1,
		"type":"VEC2",
		"componentType":5126,
		"count":200,
		"byteOffset":24,
		"min":[0.0006310036405920982,
		0.0006310036405920982],
		"max":[0.9993690252304077,
		0.41866540908813479]
	},
	{
		"bufferView":2,
		"type":"SCALAR",
		"componentType":5123,
		"count":1044,
		"byteOffset":0,
		"min":[0],
		"max":[661]
	},
	{
		"bufferView":3,
		"type":"VEC3",
		"componentType":5126,
		"count":662,
		"byteOffset":0,
		"min":[-5.283267974853516,
		-7.10646216716475e-17,
		-2.785825729370117],
		"max":[5.3282389640808109,
		0.015217368490993977,
		1.4696952104568482]
	},
	{
		"bufferView":3,
		"type":"VEC3",
		"componentType":5126,
		"count":662,
		"byteOffset":12,
		"min":[-1.0,
		0.0,
		-1.0],
		"max":[1.0,
		1.0,
		1.0]
	},
	{
		"bufferView":3,
		"type":"VEC2",
		"componentType":5126,
		"count":662,
		"byteOffset":24,
		"min":[0.0003258897049818188,
		0.00032588967587798834],
		"max":[0.9990243911743164,
		0.9913516044616699]
	},
	{
		"bufferView":4,
		"type":"SCALAR",
		"componentType":5123,
		"count":38520,
		"byteOffset":0,
		"min":[0],
		"max":[15875]
	},
	{
		"bufferView":5,
		"type":"VEC3",
		"componentType":5126,
		"count":15876,
		"byteOffset":0,
		"min":[-5.056089878082275,
		-2.8587050437927248,
		-0.5002076625823975],
		"max":[5.553388595581055,
		2.7410614490509035,
		0.031718332320451739]
	},
	{
		"bufferView":5,
		"type":"VEC3",
		"componentType":5126,
		"count":15876,
		"byteOffset":12,
		"min":[-1.0,
		-1.0,
		0.0],
		"max":[1.0,
		1.0,
		1.0]
	},
	{
		"bufferView":5,
		"type":"VEC2",
		"componentType":5126,
		"count":15876,
		"byteOffset":24,
		"min":[0.0,
		0.0],
		"max":[0.9913830757141113,
		1.0]
	},
	{
		"bufferView":6,
		"type":"SCALAR",
		"componentType":5123,
		"count":1716,
		"byteOffset":0,
		"min":[0],
		"max":[391]
	},
	{
		"bufferView":7,
		"type":"VEC3",
		"componentType":5126,
		"count":392,
		"byteOffset":0,
		"min":[-5.643248558044434,
		0.0,
		-3.068164587020874],
		"max":[5.641118049621582,
		0.5209500193595886,
		2.917807102203369]
	},
	{
		"bufferView":7,
		"type":"VEC3",
		"componentType":5126,
		"count":392,
		"byteOffset":12,
		"min":[-1.0,
		0.0,
		0.0],
		"max":[1.0,
		1.0,
		1.0]
	},
	{
		"bufferView":7,
		"type":"VEC2",
		"componentType":5126,
		"count":392,
		"byteOffset":24,
		"min":[0.0,
		0.0],
		"max":[1.0,
		1.0]
	}],
	"nodes":[{
		"name":"Building",
		"children":[1,
		2,
		3,
		4]
	},
	{
		"name":"Roads",
		"translation":[0.022485358640551568,
		7.152228355407715,
		-0.49898797273635867],
		"rotation":[-0.7071067690849304,
		0.0,
		0.0,
		-0.7071067690849304],
		"scale":[1.0,
		1.0,
		1.0],
		"children":[5]
	},
	{
		"name":"Paths",
		"translation":[0.0,
		6.4941630363464359,
		-0.49898797273635867],
		"rotation":[-0.7071067690849304,
		0.0,
		0.0,
		-0.7071067690849304],
		"scale":[1.0,
		1.0,
		1.0],
		"children":[6]
	},
	{
		"name":"Windows",
		"translation":[-0.2248697578907013,
		6.451463222503662,
		0.0002076666714856401],
		"rotation":[0.0,
		0.0,
		0.0,
		-1.0],
		"scale":[1.0,
		1.0,
		1.0],
		"children":[7]
	},
	{
		"name":"Building",
		"translation":[0.0,
		6.384567737579346,
		-0.5],
		"rotation":[-0.7071067690849304,
		0.0,
		0.0,
		-0.7071067690849304],
		"scale":[1.0,
		1.0,
		1.0],
		"children":[8]
	},
	{
		"name":"Roads-Roads",
		"mesh":0
	},
	{
		"name":"Paths-Paths",
		"mesh":1
	},
	{
		"name":"Windows-Windows",
		"mesh":2
	},
	{
		"name":"Building-Building",
		"mesh":3
	}],
	"meshes":[{
		"name":"Roads-Roads",
		"primitives":[{
			"attributes":{
				"POSITION":1,
				"NORMAL":2,
				"TEXCOORD_0":3
			},
			"indices":0,
			"material":0
		}]
	},
	{
		"name":"Paths-Paths",
		"primitives":[{
			"attributes":{
				"POSITION":5,
				"NORMAL":6,
				"TEXCOORD_0":7
			},
			"indices":4,
			"material":1
		}]
	},
	{
		"name":"Windows-Windows",
		"primitives":[{
			"attributes":{
				"POSITION":9,
				"NORMAL":10,
				"TEXCOORD_0":11
			},
			"indices":8,
			"material":2
		}]
	},
	{
		"name":"Building-Building",
		"primitives":[{
			"attributes":{
				"POSITION":13,
				"NORMAL":14,
				"TEXCOORD_0":15
			},
			"indices":12,
			"material":3
		}]
	}],
	"bufferViews":[{
		"buffer":0,
		"byteOffset":0,
		"byteLength":1548,
		"target":34963
	},
	{
		"buffer":0,
		"byteOffset":1548,
		"byteLength":6400,
		"target":34962,
		"byteStride":32
	},
	{
		"buffer":1,
		"byteOffset":0,
		"byteLength":2088,
		"target":34963
	},
	{
		"buffer":1,
		"byteOffset":2088,
		"byteLength":21184,
		"target":34962,
		"byteStride":32
	},
	{
		"buffer":2,
		"byteOffset":0,
		"byteLength":77040,
		"target":34963
	},
	{
		"buffer":2,
		"byteOffset":77040,
		"byteLength":508032,
		"target":34962,
		"byteStride":32
	},
	{
		"buffer":3,
		"byteOffset":0,
		"byteLength":3432,
		"target":34963
	},
	{
		"buffer":3,
		"byteOffset":3432,
		"byteLength":12544,
		"target":34962,
		"byteStride":32
	}],
	"buffers":[{
		"uri":"data:application/octet-stream;base64,",
		"byteLength":7948
	},
	{
		"uri":"data:application/octet-stream;base64,",
		"byteLength":23272
	},
	{
		"uri":"data:application/octet-stream;base64,",
		"byteLength":585072
	},
	{
		"uri":"data:application/octet-stream;base64,",
		"byteLength":15976
	}],
	"materials":[{
		"pbrMetallicRoughness":{
			"baseColorFactor":[0.5,
			0.5,
			0.5,
			1.0],
			"metallicFactor":0.0,
			"roughnessFactor":0.20000000298023225
		},
		"emissiveFactor":[0.0,
		0.0,
		0.0],
		"alphaMode":"OPAQUE",
		"doubleSided":false,
		"name":"Roads"
	},
	{
		"pbrMetallicRoughness":{
			"baseColorFactor":[0.5,
			0.5,
			0.5,
			1.0],
			"metallicFactor":0.0,
			"roughnessFactor":0.20000000298023225
		},
		"emissiveFactor":[0.0,
		0.0,
		0.0],
		"alphaMode":"OPAQUE",
		"doubleSided":false,
		"name":"Paths"
	},
	{
		"pbrMetallicRoughness":{
			"baseColorFactor":[0.5,
			0.5,
			0.5,
			1.0],
			"metallicFactor":0.0,
			"roughnessFactor":0.20000000298023225
		},
		"emissiveFactor":[0.0,
		0.0,
		0.0],
		"alphaMode":"OPAQUE",
		"doubleSided":false,
		"name":"Windows"
	},
	{
		"pbrMetallicRoughness":{
			"baseColorFactor":[0.5,
			0.5,
			0.5,
			1.0],
			"metallicFactor":0.0,
			"roughnessFactor":0.20000000298023225
		},
		"emissiveFactor":[0.0,
		0.0,
		0.0],
		"alphaMode":"OPAQUE",
		"doubleSided":false,
		"name":"Building"
	}]
}