<?xml version="1.0" encoding="UTF-8"?><svg id="a" xmlns="http://www.w3.org/2000/svg" viewBox="0 0 884.19 884.19"><defs><style>.c{fill:#e1143c;}</style></defs><g id="b"><path class="c" d="M189.88,801.68c-1.53,0-2.18,2.02-.92,2.9,71.71,50.17,158.98,79.62,253.13,79.62s181.43-29.45,253.14-79.62c1.26-.88.61-2.9-.92-2.9H189.88Z"/><path class="c" d="M694.31,82.51c1.53,0,2.18-2.02.92-2.9C623.52,29.45,536.25,0,442.1,0s-181.43,29.45-253.13,79.62c-1.26.88-.61,2.9.92,2.9h504.42Z"/><path class="c" d="M801.68,189.89v504.42c0,1.53,2.02,2.18,2.9.92,50.17-71.71,79.62-158.98,79.62-253.13s-29.45-181.43-79.62-253.13c-.88-1.26-2.9-.61-2.9.92h0Z"/><path class="c" d="M82.51,189.88c0-1.53-2.02-2.18-2.9-.92C29.45,260.67,0,347.94,0,442.1s29.45,181.43,79.62,253.13c.88,1.26,2.9.61,2.9-.92V189.88h-.01Z"/><path d="M300.26,609.32l9.19-86.98c31.59,17.91,60.11,30.17,100.18,30.17s70.01-16.5,70.01-46.91c0-34.65-35.83-51.15-81.32-51.15-27.34,0-54.45,4.24-80.62,12.73l21.69-212.85h235.01l-8.96,89.1h-150.15l-2.83,32.06h19.8c93.34,0,152.51,43.61,152.51,126.58s-63.17,136.48-161.94,136.48c-53.98,0-99.71-16.03-122.57-29.23Z"/></g></svg>