<?xml version="1.0" encoding="UTF-8"?><svg id="b" xmlns="http://www.w3.org/2000/svg" viewBox="0 0 176.43 24.42"><defs><style>.d{fill:#e1143c;}.e{fill:#ebebeb;}.f{fill:#fff;}</style></defs><g id="c"><path class="d" d="M4.55,19.22s-.05.05-.02.07c1.72,1.2,3.81,1.91,6.07,1.91s4.35-.71,6.07-1.91c.03-.02.01-.07-.02-.07H4.55Z"/><path class="d" d="M16.65,1.98s.05-.05.02-.07c-1.72-1.2-3.81-1.91-6.07-1.91s-4.35.71-6.07,1.91c-.03.02-.01.07.02.07h12.09Z"/><path class="d" d="M174.46,4.55v12.09s.05.05.07.02c1.2-1.72,1.91-3.81,1.91-6.07s-.71-4.35-1.91-6.07c-.02-.03-.07-.01-.07.02Z"/><path class="d" d="M1.98,4.55s-.05-.05-.07-.02c-1.2,1.72-1.91,3.81-1.91,6.07s.71,4.35,1.91,6.07c.02.03.07.01.07-.02V4.55Z"/><path class="e" d="M7.2,14.61l.22-2.09c.76.43,1.44.72,2.4.72s1.68-.4,1.68-1.12c0-.83-.86-1.23-1.95-1.23-.66,0-1.31.1-1.93.31l.52-5.1h5.63l-.21,2.14h-3.6l-.07.77h.47c2.24,0,3.66,1.05,3.66,3.03s-1.51,3.27-3.88,3.27c-1.29,0-2.39-.38-2.94-.7Z"/><path class="f" d="M158.41,6.26h1.63l2.09,5.62h.02c0-.12,0-.34-.01-.68,0-.15,0-.32-.01-.52,0-.2,0-.41,0-.64l-.04-3.78h1.86c-.16.41-.23.86-.23,1.35v7.68h-1.6l-2.13-5.71h-.02l.03,1.83.04,3.88h-1.63V6.26ZM153.09,6.26h4.7v1h-2.93v2.98h1.57v.99h-1.57v3.07h2.93v1h-4.7V6.26ZM145.79,6.26h1.87l1.12,2.64h.01l1.13-2.64h1.84v7.68c0,.48.08.93.23,1.35h-1.98v-6.41h-.01l-1.12,2.55h-.21l-1.13-2.55h-.01v6.41h-1.74V6.26ZM138.49,6.26h1.87l1.12,2.64h.01l1.13-2.64h1.84v7.68c0,.48.08.93.23,1.35h-1.98v-6.41h-.01l-1.12,2.55h-.21l-1.13-2.55h-.01v6.41h-1.74V6.26ZM134.1,11.94l-2-5.69h1.85l1.27,4.21,1.26-4.21h1.38l-2,5.69v3.35h-1.78v-3.35ZM128.81,10.6c.27,0,.51-.06.71-.18.21-.13.38-.31.5-.56s.18-.55.18-.9c0-.52-.13-.94-.38-1.24-.25-.31-.59-.47-1.02-.47h-.37v3.35h.37ZM126.66,6.26h2.43c.6,0,1.11.1,1.55.3s.77.49,1.01.88c.24.39.36.86.36,1.42s-.12,1.01-.35,1.41c-.23.41-.57.73-1.01.97l1.13,2.76c.11.29.22.51.31.67.1.16.24.36.42.62h-2.13l-1.36-3.66h-.6v3.66h-1.78V6.26ZM121.86,5.27v-.89h-.89v.89h.89ZM121.42,5.97c-.22,0-.42-.05-.6-.15-.18-.1-.32-.24-.42-.41-.1-.17-.15-.36-.15-.57s.05-.4.15-.57c.1-.18.24-.32.42-.41.18-.1.38-.16.6-.16s.42.05.6.16c.18.1.32.24.41.41.1.17.15.36.15.57s-.05.4-.15.57c-.1.17-.24.31-.41.41-.18.1-.38.15-.6.15ZM122.15,13.2l-.41-2.26c-.13-.72-.26-1.47-.36-2.27h-.03c-.13.89-.25,1.64-.37,2.27l-.41,2.26h1.59ZM120.43,6.26h1.91l2.02,9.03h-1.83l-.2-1.1h-1.94c-.03.29-.05.57-.05.83v.27s-1.92,0-1.92,0l2.01-9.03ZM115.55,10.8c.31,0,.57-.08.78-.24.22-.16.38-.38.49-.65.11-.28.16-.6.16-.95,0-.54-.12-.96-.36-1.26-.24-.3-.59-.45-1.07-.45h-.37v3.55h.37ZM113.42,6.26h2.41c.93,0,1.65.23,2.17.69.51.45.77,1.12.77,2.01,0,.58-.12,1.09-.37,1.51-.25.42-.59.74-1.04.96-.44.22-.96.33-1.54.33h-.63v2.19c0,.48.08.93.23,1.35h-2V6.26ZM107.35,10.6c.27,0,.51-.06.71-.18.21-.13.38-.31.5-.56s.18-.55.18-.9c0-.52-.13-.94-.38-1.24-.25-.31-.59-.47-1.02-.47h-.37v3.35h.37ZM105.2,6.26h2.43c.6,0,1.11.1,1.55.3s.77.49,1.01.88c.24.39.36.86.36,1.42s-.12,1.01-.35,1.41c-.23.41-.57.73-1.01.97l1.13,2.76c.11.29.22.51.31.67.1.16.24.36.42.62h-2.13l-1.36-3.66h-.6v3.66h-1.78V6.26ZM102.22,13.2l-.41-2.26c-.13-.72-.26-1.47-.36-2.27h-.03c-.13.89-.25,1.64-.37,2.27l-.41,2.26h1.59ZM100.5,6.26h1.91l2.02,9.03h-1.83l-.2-1.1h-1.94c-.03.29-.05.57-.05.83v.27s-1.92,0-1.92,0l2.01-9.03ZM95.56,15.39c-.5,0-.95-.1-1.34-.29-.39-.19-.69-.48-.91-.86-.22-.38-.33-.83-.33-1.36v-.45h1.82c-.05.09-.09.23-.12.42-.03.19-.05.34-.05.45,0,.2.04.38.12.53.09.15.2.27.35.36.15.08.31.12.49.12.29,0,.53-.09.72-.27.19-.18.29-.46.29-.84,0-.22-.06-.42-.19-.6-.13-.19-.28-.35-.47-.51-.19-.16-.45-.35-.79-.58-.45-.31-.82-.59-1.11-.83-.28-.24-.52-.54-.73-.89-.2-.36-.3-.77-.3-1.23s.11-.9.34-1.26c.23-.37.54-.65.95-.85.4-.2.86-.3,1.36-.3s.94.1,1.32.29c.38.19.68.48.89.86.22.37.32.82.32,1.34v.45h-1.84c.05-.11.1-.24.14-.41.04-.16.06-.3.06-.41,0-.31-.09-.56-.26-.75s-.39-.29-.66-.29c-.29,0-.54.09-.73.26-.19.17-.29.43-.29.78,0,.22.06.43.19.62.13.19.3.37.49.53.2.16.48.36.83.6.46.31.83.59,1.12.84.29.24.54.54.74.89.2.35.3.74.3,1.19,0,.48-.12.91-.35,1.29-.23.37-.56.66-.97.86-.41.2-.88.3-1.4.3ZM90.31,6.26h1.77v9.03h-1.77V6.26ZM86.61,14.31c.29,0,.52-.1.69-.3.17-.2.25-.46.25-.77v-4.9c0-.32-.08-.58-.25-.78-.16-.21-.39-.31-.69-.31h-.82v7.07h.82ZM84.02,6.26h2.8c.46,0,.88.1,1.25.3.38.19.68.48.9.84.22.37.34.79.34,1.28v4.2c0,.49-.11.92-.33,1.28s-.52.64-.9.84c-.38.19-.8.29-1.26.29h-2.8V6.26ZM77.39,6.26h1.63l2.09,5.62h.02c0-.12,0-.34-.01-.68,0-.15,0-.32-.01-.52,0-.2,0-.41,0-.64l-.04-3.78h1.86c-.16.41-.23.86-.23,1.35v7.68h-1.6l-2.13-5.71h-.02l.03,1.83.04,3.88h-1.63V6.26ZM71.87,5.08c0-.15.04-.29.11-.41.08-.13.18-.23.3-.3.13-.07.26-.11.41-.11s.28.04.41.11.22.18.3.3c.08.13.12.26.12.41s-.04.29-.12.42c-.07.13-.17.22-.3.3s-.26.11-.41.11-.28-.04-.41-.11c-.13-.07-.23-.17-.3-.3-.07-.13-.11-.27-.11-.42ZM74.65,5.91c-.15,0-.28-.04-.41-.11s-.23-.17-.3-.3c-.07-.13-.11-.27-.11-.42s.04-.29.11-.41c.08-.13.18-.23.3-.3s.26-.11.41-.11.28.04.41.11c.13.07.22.18.3.3.08.13.12.26.12.41s-.04.29-.12.42c-.07.13-.17.22-.3.3-.13.07-.26.11-.41.11ZM74.41,13.2l-.41-2.26c-.13-.72-.26-1.47-.36-2.27h-.03c-.13.89-.25,1.64-.37,2.27l-.41,2.26h1.59ZM72.69,6.26h1.91l2.02,9.03h-1.83l-.2-1.1h-1.94c-.03.29-.05.57-.05.83v.27s-1.92,0-1.92,0l2.01-9.03ZM65.02,6.26h1.77v3.72h.04l1.37-2.55c.18-.35.33-.74.45-1.17h2l-2.39,4.26,2.63,4.77h-2.01l-2.06-3.82h-.03v3.82h-1.77V6.26ZM58.56,11.18h3.49v1.27h-3.49v-1.27ZM53.02,14.31c.29,0,.52-.1.69-.3.17-.2.25-.46.25-.77v-4.9c0-.32-.08-.58-.25-.78-.16-.21-.39-.31-.69-.31h-.82v7.07h.82ZM50.43,6.26h2.8c.46,0,.88.1,1.25.3.38.19.68.48.9.84.22.37.34.79.34,1.28v4.2c0,.49-.11.92-.33,1.28s-.52.64-.9.84c-.38.19-.8.29-1.26.29h-2.8V6.26ZM47.45,13.2l-.41-2.26c-.13-.72-.26-1.47-.36-2.27h-.03c-.13.89-.25,1.64-.37,2.27l-.41,2.26h1.59ZM45.73,6.26h1.91l2.02,9.03h-1.83l-.2-1.1h-1.94c-.03.29-.05.57-.05.83v.27s-1.92,0-1.92,0l2.01-9.03ZM40.64,15.39c-.51,0-.98-.1-1.4-.31-.42-.21-.75-.51-1-.89-.24-.38-.36-.83-.36-1.34v-4.16c0-.49.12-.93.37-1.32.25-.39.58-.69,1.01-.91.42-.22.89-.32,1.4-.32.56,0,1.04.11,1.45.32.41.21.73.51.95.92.22.4.34.89.34,1.46v.24h-1.93c.05-.1.09-.24.12-.41.03-.18.05-.32.05-.43,0-.37-.09-.64-.28-.81-.19-.18-.42-.27-.7-.27-.17,0-.33.04-.47.13-.15.08-.27.2-.36.36-.09.16-.13.34-.13.54v5.19c0,.2.04.38.13.53.09.15.21.27.36.35.15.08.3.12.47.12s.32-.04.47-.12c.15-.08.27-.2.36-.35.1-.15.14-.33.14-.53v-1.71h-.97v-1.13h2.74v2.31c0,.51-.12.96-.36,1.34-.23.38-.56.67-.98.88-.41.21-.89.31-1.41.31ZM35.37,13.2l-.41-2.26c-.13-.72-.26-1.47-.36-2.27h-.03c-.13.89-.25,1.64-.37,2.27l-.41,2.26h1.59ZM33.65,6.26h1.91l2.02,9.03h-1.83l-.2-1.1h-1.94c-.03.29-.05.57-.05.83v.27s-1.92,0-1.92,0l2.01-9.03ZM28.73,15.38c-.52,0-.96-.1-1.33-.29s-.65-.48-.84-.84c-.19-.37-.29-.82-.29-1.34v-.46h1.79c-.04.16-.07.34-.1.53-.03.19-.04.36-.04.51,0,.29.06.52.19.68.13.16.32.24.57.24s.45-.08.58-.25c.13-.17.19-.41.19-.72v-7.18h1.75v6.63c0,.5-.1.94-.31,1.32-.21.38-.5.67-.88.88-.38.2-.81.3-1.3.3Z"/><path class="f" d="M72.99,23.6c0,.12.03.22.1.31.07.08.16.12.28.12.07,0,.13-.02.19-.05.06-.03.1-.08.14-.14.03-.06.05-.12.05-.19v-2.31c0-.12-.03-.22-.1-.31s-.16-.12-.28-.12c-.07,0-.13.02-.19.05-.06.03-.1.08-.14.14-.03.06-.05.12-.05.2v2.31ZM73.37,24.42c-.21,0-.39-.04-.56-.13-.16-.09-.29-.21-.38-.37-.09-.16-.14-.34-.14-.55v-1.8c0-.21.05-.39.14-.55.09-.16.22-.28.38-.37.16-.09.35-.13.56-.13s.39.04.56.13c.16.09.29.21.38.37.09.16.14.34.14.55v1.8c0,.21-.05.39-.14.55-.09.16-.22.28-.38.37-.16.09-.35.13-.56.13ZM69.1,23.6c0,.12.03.22.1.31.07.08.16.12.28.12.07,0,.13-.02.19-.05.06-.03.1-.08.14-.14.03-.06.05-.12.05-.19v-2.31c0-.12-.03-.22-.1-.31-.07-.08-.16-.12-.28-.12-.07,0-.13.02-.19.05-.06.03-.1.08-.14.14-.03.06-.05.12-.05.2v2.31ZM69.48,24.42c-.21,0-.39-.04-.56-.13-.16-.09-.29-.21-.38-.37-.09-.16-.14-.34-.14-.55v-1.8c0-.21.05-.39.14-.55.09-.16.22-.28.38-.37.16-.09.35-.13.56-.13s.39.04.56.13c.16.09.29.21.38.37.09.16.14.34.14.55v1.8c0,.21-.05.39-.14.55-.09.16-.22.28-.38.37-.16.09-.35.13-.56.13ZM66.4,24.41c-.07,0-.14-.02-.21-.05-.06-.04-.11-.09-.15-.15-.04-.06-.05-.13-.05-.21,0-.08.02-.15.05-.22.04-.07.09-.12.15-.16.06-.04.13-.06.21-.06.08,0,.15.02.22.06.07.04.12.09.16.16.04.07.06.14.06.22s-.02.14-.06.21c-.04.06-.09.11-.16.15-.07.04-.14.05-.22.05ZM63.58,21.26l-.52.39v-.49l.72-.6h.52v3.81h-.72v-3.11ZM59.47,24.1l1.21-2c.07-.12.13-.23.17-.34.04-.11.06-.22.06-.34,0-.15-.04-.26-.11-.35-.07-.08-.17-.13-.29-.13s-.22.04-.28.13c-.07.08-.1.2-.1.35,0,.06,0,.12.02.19.01.07.03.13.05.18h-.76v-.21c0-.2.05-.38.14-.54.09-.16.23-.29.39-.37.17-.09.36-.14.56-.14s.39.04.55.12c.16.08.29.2.38.34.09.15.14.32.14.51,0,.15-.03.3-.09.45-.06.15-.15.31-.25.48l-.92,1.53h1.26v.42h-2.13v-.27ZM54.48,22.39c.11,0,.21-.03.3-.08.09-.05.16-.13.21-.24.05-.1.08-.23.08-.38,0-.22-.05-.4-.16-.53-.1-.13-.25-.2-.43-.2h-.16v1.41h.16ZM53.58,20.56h1.03c.25,0,.47.04.65.13.18.08.33.21.43.37.1.16.15.36.15.6s-.05.43-.15.6-.24.31-.42.41l.48,1.17c.05.12.09.22.13.28.04.07.1.15.18.26h-.9l-.57-1.55h-.25v1.55h-.75v-3.81ZM51.03,23.49l-.18-.95c-.06-.3-.11-.62-.15-.96h-.01c-.05.37-.11.69-.16.96l-.18.95h.67ZM50.31,20.56h.81l.85,3.81h-.77l-.08-.46h-.82c-.01.12-.02.24-.02.35v.11s-.81,0-.81,0l.85-3.81ZM46.87,24.41c-.22,0-.41-.04-.59-.13-.18-.09-.32-.21-.42-.37-.1-.16-.15-.35-.15-.56v-1.75c0-.21.05-.39.16-.56.1-.16.25-.29.42-.38.18-.09.38-.14.59-.14.24,0,.44.04.61.13.17.09.31.22.4.39.09.17.14.37.14.62v.1h-.82s.04-.1.05-.18c.01-.07.02-.14.02-.18,0-.16-.04-.27-.12-.34-.08-.07-.18-.11-.3-.11-.07,0-.14.02-.2.05-.06.03-.11.08-.15.15-.04.07-.05.14-.05.23v2.19c0,.09.02.16.05.22.04.06.09.11.15.15.06.03.13.05.2.05s.14-.02.2-.05c.06-.03.11-.08.15-.15.04-.06.06-.14.06-.22v-.72h-.41v-.48h1.15v.98c0,.22-.05.4-.15.57-.1.16-.24.28-.41.37-.18.09-.37.13-.6.13ZM43.36,23.49l-.18-.95c-.06-.3-.11-.62-.15-.96h-.01c-.05.37-.11.69-.16.96l-.18.95h.67ZM42.63,20.56h.81l.85,3.81h-.77l-.08-.46h-.82c-.01.12-.02.24-.02.35v.11s-.81,0-.81,0l.85-3.81ZM39.21,23.96c.12,0,.22-.04.29-.13.07-.09.11-.19.11-.33v-2.07c0-.13-.04-.25-.11-.33-.07-.09-.17-.13-.29-.13h-.34v2.98h.34ZM38.12,20.56h1.18c.19,0,.37.04.53.13.16.08.29.2.38.36.09.16.14.33.14.54v1.77c0,.21-.05.39-.14.54-.09.15-.22.27-.38.35-.16.08-.34.12-.53.12h-1.18v-3.81ZM35.3,24.41c-.21,0-.4-.04-.56-.12-.16-.08-.29-.2-.39-.36-.09-.16-.14-.35-.14-.57v-.19h.77s-.04.1-.05.18c-.01.08-.02.14-.02.19,0,.08.02.16.05.22.04.06.09.11.15.15.06.03.13.05.21.05.12,0,.23-.04.3-.11.08-.08.12-.2.12-.36,0-.09-.03-.18-.08-.25-.05-.08-.12-.15-.2-.21-.08-.07-.19-.15-.33-.24-.19-.13-.35-.25-.47-.35-.12-.1-.22-.23-.31-.38-.08-.15-.13-.32-.13-.52s.05-.38.14-.53c.1-.16.23-.27.4-.36.17-.08.36-.13.57-.13s.4.04.56.12.29.2.37.36c.09.16.14.35.14.57v.19h-.78s.04-.1.06-.17.02-.13.02-.18c0-.13-.04-.24-.11-.32-.07-.08-.17-.12-.28-.12-.12,0-.23.04-.31.11-.08.07-.12.18-.12.33,0,.09.03.18.08.26.06.08.13.16.21.22.08.07.2.15.35.25.19.13.35.25.47.35.12.1.23.23.31.37.09.15.13.31.13.5,0,.2-.05.39-.15.54-.1.16-.24.28-.41.36-.18.09-.37.13-.59.13ZM30.31,20.56h.69l.88,2.37h0s0-.15,0-.29c0-.06,0-.13,0-.22,0-.08,0-.17,0-.27l-.02-1.6h.79c-.07.18-.1.36-.1.57v3.24h-.67l-.9-2.41h0v.77s.03,1.64.03,1.64h-.69v-3.81ZM27.07,23.57c0,.08.02.15.05.21.04.06.08.11.15.14.06.03.13.05.2.05.07,0,.13-.02.19-.05.06-.03.11-.08.15-.15s.05-.13.05-.21v-2.22c0-.08-.02-.15-.05-.22-.04-.06-.08-.11-.15-.14-.06-.03-.12-.05-.19-.05-.07,0-.14.02-.2.05-.06.03-.11.08-.15.14-.03.06-.05.13-.05.21v2.22ZM27.46,24.41c-.21,0-.41-.04-.58-.13-.17-.09-.31-.22-.41-.38-.1-.16-.15-.35-.15-.56v-1.75c0-.21.05-.4.15-.56s.24-.29.41-.38c.17-.09.37-.13.58-.13s.4.04.57.13c.17.09.31.21.41.38.1.16.15.35.15.56v1.75c0,.21-.05.4-.15.56s-.24.29-.41.38c-.17.09-.37.13-.58.13Z"/></g></svg>