<?xml version="1.0" encoding="UTF-8"?><svg id="b" xmlns="http://www.w3.org/2000/svg" viewBox="0 0 143.4 16.38"><defs><style>.d{fill:#fff;}</style></defs><g id="c"><path class="d" d="M140.13,7.35h1.57l-.8-1.42-.77,1.42ZM138.51,8.73l2.03-3.42h.8l2.06,3.42h-.94l-.43-.75h-2.26l-.43.75h-.83ZM134.07,8.73v-3.42h3.08c.28,0,.49.05.61.16.13.1.19.27.19.5v.8c0,.23-.06.4-.19.5-.13.1-.33.15-.61.15h-.47l1.63,1.29h-1.2l-1.43-1.29h-.79v1.29h-.82ZM136.79,5.9h-1.9v.95h1.9c.14,0,.24-.02.3-.06.06-.04.08-.11.08-.21v-.39c0-.1-.03-.17-.08-.21-.05-.04-.15-.06-.3-.06ZM130.57,8.73v-1.53l-1.87-1.88h1.12l1.22,1.27,1.23-1.27h.98l-1.86,1.87v1.55h-.83ZM126.55,5.92v2.81h-.83v-2.81h-1.65v-.61h4.13v.61h-1.65ZM122.31,5.92h-2.35v.72h2.23c.35,0,.59.06.71.17.12.11.18.32.18.64v.47c0,.31-.06.53-.19.64s-.36.17-.7.17h-2.22c-.35,0-.59-.06-.72-.17-.12-.11-.19-.33-.19-.64v-.09l.74-.14v.4h2.51v-.78h-2.21c-.35,0-.59-.06-.71-.17-.12-.12-.19-.33-.19-.64v-.38c0-.31.06-.52.19-.63.12-.12.36-.17.71-.17h2.03c.34,0,.58.06.71.17.13.11.19.3.19.58v.08l-.72.15v-.37ZM113.29,5.92v2.81h-.83v-2.81h-1.65v-.61h4.13v.61h-1.65ZM108.88,5.92v2.81h-.83v-2.81h-1.65v-.61h4.13v.61h-1.65ZM103.16,7.35h1.57l-.8-1.42-.77,1.42ZM101.54,8.73l2.03-3.42h.8l2.06,3.42h-.94l-.43-.75h-2.26l-.43.75h-.83ZM93.68,8.73v-3.42h3.08c.28,0,.49.05.61.16.13.1.19.27.19.5v.8c0,.23-.06.4-.19.5-.13.1-.33.15-.61.15h-.47l1.63,1.29h-1.2l-1.43-1.29h-.79v1.29h-.82ZM96.4,5.9h-1.9v.95h1.9c.14,0,.24-.02.3-.06.06-.04.08-.11.08-.21v-.39c0-.1-.03-.17-.08-.21-.05-.04-.15-.06-.3-.06ZM88.96,4.68v-.9h.8v.9h-.8ZM90.3,4.68v-.9h.8v.9h-.8ZM87.82,6.12c0-.31.06-.52.18-.64s.36-.17.71-.17h2.64c.35,0,.59.06.71.17.12.11.18.32.18.64v1.8c0,.31-.06.53-.19.64-.12.11-.36.17-.7.17h-2.64c-.35,0-.59-.06-.71-.17s-.18-.33-.18-.64v-1.8ZM88.65,8.07h2.75v-2.13h-2.75v2.13ZM83.46,8.73v-3.42h3.63v.61h-2.79v.89h1.5v.64h-1.5v1.28h-.84ZM75.41,8.73v-3.42h3.67v.6h-2.82v.75h1.65v.59h-1.65v.84h2.87v.64h-3.71ZM73.06,5.9h-1.9v.91h1.9c.14,0,.24-.02.3-.06.06-.04.08-.11.08-.21v-.36c0-.1-.03-.17-.08-.21-.05-.04-.15-.06-.3-.06ZM70.34,8.73v-3.42h3.08c.28,0,.49.05.61.16.13.1.19.27.19.5v.76c0,.23-.06.4-.19.51-.13.1-.33.15-.61.15h-2.26v1.33h-.82ZM67.98,8.73v-3.42h.83v3.42h-.83ZM62.53,8.73l-1.39-3.42h.87l.9,2.38.96-2.38h.57l.95,2.38.88-2.38h.75l-1.37,3.42h-.57l-.99-2.41-1,2.41h-.57ZM59.41,5.92h-2.35v.72h2.23c.35,0,.59.06.71.17.12.11.18.32.18.64v.47c0,.31-.06.53-.19.64s-.36.17-.7.17h-2.22c-.35,0-.59-.06-.72-.17-.12-.11-.19-.33-.19-.64v-.09l.74-.14v.4h2.51v-.78h-2.21c-.35,0-.59-.06-.71-.17-.12-.12-.19-.33-.19-.64v-.38c0-.31.06-.52.19-.63.12-.12.36-.17.71-.17h2.03c.34,0,.58.06.71.17.13.11.19.3.19.58v.08l-.72.15v-.37ZM47.51,8.73v-3.42h2.3c.66,0,1.17.15,1.52.44.36.29.53.71.53,1.25,0,.57-.19,1-.56,1.29-.37.29-.94.43-1.7.43h-2.09ZM48.35,8.09h1.07c.59,0,1-.09,1.23-.26.23-.17.35-.46.35-.86,0-.35-.1-.61-.29-.79-.19-.17-.49-.26-.9-.26h-1.47v2.17ZM41.76,8.73v-3.42h.57l2.9,2.27v-2.27h.75v3.42h-.58l-2.89-2.3v2.3h-.76ZM37.31,4.68v-.9h.8v.9h-.8ZM38.65,4.68v-.9h.8v.9h-.8ZM37.63,7.35h1.57l-.8-1.42-.77,1.42ZM36.01,8.73l2.03-3.42h.8l2.06,3.42h-.93l-.43-.75h-2.26l-.43.75h-.83ZM33.03,8.73l-2.07-3.42h.94l1.45,2.48,1.36-2.48h.86l-1.98,3.42h-.57ZM25.68,8.73v-3.42h.57l2.9,2.27v-2.27h.75v3.42h-.58l-2.89-2.3v2.3h-.76ZM18.95,8.73l2.36-4.17h.94l2.39,4.17h-1.09l-.5-.91h-2.64l-.49.91h-.97ZM20.82,7.06h1.83l-.9-1.7-.93,1.7Z"/><path class="d" d="M1.01,4.12c-.1,0-.2-.04-.27-.11-.15-.15-.15-.39,0-.54l1.91-1.91c.15-.15.39-.15.54,0,.15.15.15.39,0,.54l-1.91,1.91c-.08.07-.17.11-.27.11Z"/><path class="d" d="M2.93,4.12h-1.91c-.21,0-.38-.17-.38-.38v-1.91c0-.21.17-.38.38-.38s.38.17.38.38v1.53h1.53c.21,0,.38.17.38.38s-.17.38-.38.38Z"/><path class="d" d="M9.44,4.12c-.1,0-.2-.04-.27-.11l-1.91-1.91c-.15-.15-.15-.39,0-.54.15-.15.39-.15.54,0l1.91,1.91c.15.15.15.39,0,.54-.07.07-.17.11-.27.11Z"/><path class="d" d="M9.44,4.12h-1.91c-.21,0-.38-.17-.38-.38s.17-.38.38-.38h1.53v-1.53c0-.21.17-.38.38-.38s.38.17.38.38v1.91c0,.21-.17.38-.38.38Z"/><path class="d" d="M1.54,7.01c-.21,0-.42.08-.57.23-.32.32-.22.8,0,1.12.38.54.78,1.41,1.25,2.42.93,2.04,2.21,4.83,3.54,4.83h4.25c.42-.19,2.88-1.38,2.88-3.85v-4.14c0-.4-.35-.73-.77-.73s-.77.33-.77.71c0,.21-.17.38-.38.38s-.38-.17-.38-.38v-.75c0-.4-.35-.73-.77-.73s-.77.33-.77.71c0,.21-.17.38-.38.38s-.38-.17-.38-.38v-.75c0-.4-.35-.73-.77-.73s-.77.33-.77.71c0,.21-.17.38-.38.38s-.38-.17-.38-.38V1.48c0-.38-.35-.71-.77-.71s-.77.34-.77.73v7.22c0,.16-.09.29-.24.35-.14.06-.31.03-.42-.08l-1.77-1.78c-.13-.13-.3-.2-.5-.2ZM10.09,16.38h-4.33c-1.82,0-3.1-2.8-4.23-5.28-.43-.94-.84-1.82-1.17-2.3-.49-.7-.46-1.56.08-2.1.57-.57,1.6-.59,2.15-.04l1.12,1.13V1.49c0-.81.7-1.49,1.53-1.49s1.53.66,1.53,1.48v3.32c.23-.13.49-.2.77-.2.66,0,1.24.43,1.45,1.01.24-.16.54-.25.85-.25.66,0,1.24.43,1.45,1.01.24-.16.54-.25.85-.25.83,0,1.53.69,1.53,1.49v4.14c0,3.21-3.29,4.53-3.43,4.59-.05.02-.09.03-.14.03Z"/></g></svg>