<svg width="330" height="11" viewBox="0 0 330 11" fill="none" xmlns="http://www.w3.org/2000/svg">
<path d="M0 10.8032V3.06152H7.82959V4.4165H1.80176V6.45264H5.06104V7.86621H1.80176V10.8032H0Z" fill="white"/>
<path d="M8.53271 10.8032L12.2974 4.46045H13.7842L17.6074 10.8032H15.8716L15.0732 9.41162H10.8765L10.0781 10.8032H8.53271ZM11.5356 8.25439H14.4434L12.9639 5.61035L11.5356 8.25439ZM12.0044 1.88965C12.0044 2.15332 12.0947 2.37793 12.2754 2.56348C12.4609 2.74902 12.6855 2.8418 12.9492 2.8418C13.208 2.8418 13.4277 2.74902 13.6084 2.56348C13.7891 2.37793 13.8794 2.15332 13.8794 1.88965C13.8794 1.63086 13.7891 1.41357 13.6084 1.23779C13.4326 1.05713 13.2129 0.966797 12.9492 0.966797C12.6855 0.966797 12.4609 1.05713 12.2754 1.23779C12.0947 1.41357 12.0044 1.63086 12.0044 1.88965ZM11.0596 1.88965C11.0596 1.36719 11.2402 0.922852 11.6016 0.556641C11.9678 0.185547 12.4121 0 12.9346 0C13.4619 0 13.9087 0.185547 14.2749 0.556641C14.6411 0.922852 14.8242 1.36719 14.8242 1.88965C14.8242 2.42188 14.6411 2.87109 14.2749 3.2373C13.9087 3.60352 13.4619 3.78662 12.9346 3.78662C12.4072 3.78662 11.9629 3.60352 11.6016 3.2373C11.2402 2.87109 11.0596 2.42188 11.0596 1.88965Z" fill="white"/>
<path d="M19.1968 10.8032V4.46045H20.2588L25.6421 8.67188V4.46045H27.041V10.8032H25.9717L20.603 6.52588V10.8032H19.1968Z" fill="white"/>
<path d="M36.0938 5.625H31.2671V9.5874H36.0938V8.23975H33.5742V7.11182H37.6099V9.30176C37.6099 9.88281 37.4951 10.2783 37.2656 10.4883C37.041 10.6982 36.6064 10.8032 35.9619 10.8032H31.3696C30.7251 10.8032 30.2881 10.6982 30.0586 10.4883C29.834 10.2783 29.7217 9.88281 29.7217 9.30176V5.95459C29.7217 5.37842 29.834 4.98535 30.0586 4.77539C30.2881 4.56543 30.7251 4.46045 31.3696 4.46045H35.9619C36.6016 4.46045 37.0361 4.56299 37.2656 4.76807C37.4951 4.97314 37.6099 5.34424 37.6099 5.88135V6.0498L36.0938 6.30615V5.625Z" fill="white"/>
<path d="M39.0308 10.8032L42.7954 4.46045H44.2822L48.1055 10.8032H46.3696L45.5713 9.41162H41.3745L40.5762 10.8032H39.0308ZM42.0337 8.25439H44.9414L43.4619 5.61035L42.0337 8.25439Z" fill="white"/>
<path d="M54.5435 10.8032L58.3081 4.46045H59.7949L63.6182 10.8032H61.8823L61.084 9.41162H56.8872L56.0889 10.8032H54.5435ZM57.5464 8.25439H60.4541L58.9746 5.61035L57.5464 8.25439Z" fill="white"/>
<path d="M65.2075 10.8032V4.46045H66.7676V9.6167H71.7407V10.8032H65.2075Z" fill="white"/>
<path d="M73.4839 10.8032V4.46045H75.0439V9.6167H80.0171V10.8032H73.4839Z" fill="white"/>
<path d="M80.7935 10.8032L84.5581 4.46045H86.0449L89.8682 10.8032H88.1323L87.334 9.41162H83.1372L82.3389 10.8032H80.7935ZM83.7964 8.25439H86.7041L85.2246 5.61035L83.7964 8.25439Z" fill="white"/>
<path d="M97.2729 10.8032V4.46045H98.833V7.02393L102.532 4.46045H104.773L100.386 7.39746L105.264 10.8032H102.817L98.833 7.93945V10.8032H97.2729Z" fill="white"/>
<path d="M105.608 10.8032L109.373 4.46045H110.859L114.683 10.8032H112.947L112.148 9.41162H107.952L107.153 10.8032H105.608ZM108.611 8.25439H111.519L110.039 5.61035L108.611 8.25439ZM110.508 3.28857V1.61133H112.002V3.28857H110.508ZM108.018 3.28857V1.61133H109.512V3.28857H108.018Z" fill="white"/>
<path d="M116.272 10.8032V4.46045H117.334L122.717 8.67188V4.46045H124.116V10.8032H123.047L117.678 6.52588V10.8032H116.272Z" fill="white"/>
<path d="M128.511 9.6167H130.503C131.592 9.6167 132.354 9.45801 132.788 9.14062C133.223 8.82324 133.44 8.28857 133.44 7.53662C133.44 6.88232 133.259 6.39648 132.898 6.0791C132.537 5.75684 131.982 5.5957 131.235 5.5957H128.511V9.6167ZM126.951 10.8032V4.46045H131.221C132.446 4.46045 133.386 4.73389 134.041 5.28076C134.7 5.82275 135.029 6.59912 135.029 7.60986C135.029 8.67432 134.68 9.47266 133.982 10.0049C133.289 10.5371 132.239 10.8032 130.833 10.8032H126.951Z" fill="white"/>
<path d="M137.366 10.8032V4.46045H138.904V10.8032H137.366Z" fill="white"/>
<path d="M147.59 5.5957H143.225V6.93604H147.356C148.005 6.93604 148.442 7.04102 148.667 7.25098C148.892 7.45605 149.004 7.84912 149.004 8.43018V9.30176C149.004 9.88281 148.889 10.2783 148.66 10.4883C148.43 10.6982 147.996 10.8032 147.356 10.8032H143.24C142.585 10.8032 142.141 10.6982 141.907 10.4883C141.677 10.2783 141.562 9.88281 141.562 9.30176V9.12598L142.939 8.86963V9.6167H147.605V8.1665H143.496C142.847 8.1665 142.407 8.06152 142.178 7.85156C141.948 7.63672 141.833 7.24121 141.833 6.66504V5.95459C141.833 5.3833 141.948 4.99268 142.178 4.78271C142.407 4.56787 142.847 4.46045 143.496 4.46045H147.261C147.9 4.46045 148.337 4.56299 148.572 4.76807C148.811 4.96826 148.931 5.32471 148.931 5.8374V5.99121L147.59 6.27686V5.5957Z" fill="white"/>
<path d="M150.447 10.8032L154.211 4.46045H155.698L159.521 10.8032H157.786L156.987 9.41162H152.791L151.992 10.8032H150.447ZM153.45 8.25439H156.357L154.878 5.61035L153.45 8.25439Z" fill="white"/>
<path d="M166.165 5.55176H162.634V7.30957H166.165C166.433 7.30957 166.616 7.27051 166.714 7.19238C166.816 7.11426 166.868 6.98242 166.868 6.79688V6.06445C166.868 5.87891 166.816 5.74707 166.714 5.66895C166.616 5.59082 166.433 5.55176 166.165 5.55176ZM161.111 10.8032V4.46045H166.824C167.346 4.46045 167.725 4.55811 167.959 4.75342C168.193 4.94385 168.311 5.25635 168.311 5.69092V7.18506C168.311 7.61475 168.193 7.9248 167.959 8.11523C167.725 8.30566 167.346 8.40088 166.824 8.40088H165.952L168.97 10.8032H166.75L164.092 8.40088H162.634V10.8032H161.111Z" fill="white"/>
<path d="M176.682 10.8032V4.46045H178.22V10.8032H176.682Z" fill="white"/>
<path d="M181.047 10.8032V4.46045H182.109L187.493 8.67188V4.46045H188.892V10.8032H187.822L182.454 6.52588V10.8032H181.047Z" fill="white"/>
<path d="M191.726 10.8032V4.46045H192.788L198.171 8.67188V4.46045H199.57V10.8032H198.501L193.132 6.52588V10.8032H191.726Z" fill="white"/>
<path d="M201.438 10.8032L205.203 4.46045H206.689L210.513 10.8032H208.777L207.979 9.41162H203.782L202.983 10.8032H201.438ZM204.441 8.25439H207.349L205.869 5.61035L204.441 8.25439Z" fill="white"/>
<path d="M212.102 10.8032V4.46045H213.164L218.547 8.67188V4.46045H219.946V10.8032H218.877L213.508 6.52588V10.8032H212.102Z" fill="white"/>
<path d="M232.375 5.5957V10.8032H230.83V5.5957H227.769V4.46045H235.444V5.5957H232.375Z" fill="white"/>
<path d="M237.444 10.8032V4.46045H238.982V10.8032H237.444Z" fill="white"/>
<path d="M243.369 9.6167H245.361C246.45 9.6167 247.212 9.45801 247.646 9.14062C248.081 8.82324 248.298 8.28857 248.298 7.53662C248.298 6.88232 248.118 6.39648 247.756 6.0791C247.395 5.75684 246.841 5.5957 246.094 5.5957H243.369V9.6167ZM241.809 10.8032V4.46045H246.079C247.305 4.46045 248.245 4.73389 248.899 5.28076C249.558 5.82275 249.888 6.59912 249.888 7.60986C249.888 8.67432 249.539 9.47266 248.84 10.0049C248.147 10.5371 247.097 10.8032 245.691 10.8032H241.809Z" fill="white"/>
<path d="M252.224 10.8032V4.46045H259.028V5.58105H253.784V6.96533H256.838V8.05664H253.784V9.6167H259.109V10.8032H252.224Z" fill="white"/>
<path d="M261.35 10.8032V4.46045H262.412L267.795 8.67188V4.46045H269.194V10.8032H268.125L262.756 6.52588V10.8032H261.35Z" fill="white"/>
<path d="M276.877 10.8032L280.642 4.46045H282.129L285.952 10.8032H284.216L283.418 9.41162H279.221L278.423 10.8032H276.877ZM279.88 8.25439H282.788L281.309 5.61035L279.88 8.25439ZM281.777 3.28857V1.61133H283.271V3.28857H281.777ZM279.287 3.28857V1.61133H280.781V3.28857H279.287Z" fill="white"/>
<path d="M292.595 5.55176H289.065V7.30957H292.595C292.864 7.30957 293.047 7.27051 293.145 7.19238C293.247 7.11426 293.298 6.98242 293.298 6.79688V6.06445C293.298 5.87891 293.247 5.74707 293.145 5.66895C293.047 5.59082 292.864 5.55176 292.595 5.55176ZM287.542 10.8032V4.46045H293.254C293.777 4.46045 294.155 4.55811 294.39 4.75342C294.624 4.94385 294.741 5.25635 294.741 5.69092V7.18506C294.741 7.61475 294.624 7.9248 294.39 8.11523C294.155 8.30566 293.777 8.40088 293.254 8.40088H292.383L295.4 10.8032H293.181L290.522 8.40088H289.065V10.8032H287.542Z" fill="white"/>
<path d="M304.651 4.46045V9.6167H309.067V4.46045H310.627V9.30176C310.627 9.87793 310.51 10.2734 310.276 10.4883C310.046 10.6982 309.607 10.8032 308.958 10.8032H304.761C304.116 10.8032 303.679 10.6982 303.45 10.4883C303.225 10.2783 303.113 9.88281 303.113 9.30176V4.46045H304.651Z" fill="white"/>
<path d="M317.234 5.5957V10.8032H315.688V5.5957H312.627V4.46045H320.303V5.5957H317.234Z" fill="white"/>
<path d="M322.302 10.8032V4.46045H329.106V5.58105H323.862V6.96533H326.917V8.05664H323.862V9.6167H329.187V10.8032H322.302Z" fill="white"/>
</svg>
